<svg width="84" height="98" viewBox="0 0 84 98" fill="none" xmlns="http://www.w3.org/2000/svg">
<mask id="path-1-outside-1_24879_9" maskUnits="userSpaceOnUse" x="20" y="5" width="41" height="88" fill="black">
<rect fill="white" x="20" y="5" width="41" height="88"/>
<path d="M39.1439 91V14.2L47.5439 22.6H22.3439V6.99999H58.5839V91H39.1439Z"/>
</mask>
<path d="M39.1439 91V14.2L47.5439 22.6H22.3439V6.99999H58.5839V91H39.1439Z" fill="#00093C"/>
<path d="M39.1439 91H37.1439V93H39.1439V91ZM39.1439 14.2L40.5581 12.7858L37.1439 9.37157V14.2H39.1439ZM47.5439 22.6V24.6H52.3723L48.9581 21.1858L47.5439 22.6ZM22.3439 22.6H20.3439V24.6H22.3439V22.6ZM22.3439 6.99999V4.99999H20.3439V6.99999H22.3439ZM58.5839 6.99999H60.5839V4.99999H58.5839V6.99999ZM58.5839 91V93H60.5839V91H58.5839ZM41.1439 91V14.2H37.1439V91H41.1439ZM37.7297 15.6142L46.1297 24.0142L48.9581 21.1858L40.5581 12.7858L37.7297 15.6142ZM47.5439 20.6H22.3439V24.6H47.5439V20.6ZM24.3439 22.6V6.99999H20.3439V22.6H24.3439ZM22.3439 8.99999H58.5839V4.99999H22.3439V8.99999ZM56.5839 6.99999V91H60.5839V6.99999H56.5839ZM58.5839 89H39.1439V93H58.5839V89Z" fill="#27AAE1" fill-opacity="0.2" mask="url(#path-1-outside-1_24879_9)"/>
</svg>
