<svg width="84" height="98" viewBox="0 0 84 98" fill="none" xmlns="http://www.w3.org/2000/svg">
<mask id="path-1-outside-1_24879_8" maskUnits="userSpaceOnUse" x="5" y="3" width="73" height="90" fill="black">
<rect fill="white" x="5" y="3" width="73" height="90"/>
<path d="M11.96 91V78.4L44.36 47.8C46.92 45.48 48.8 43.4 50 41.56C51.2 39.72 52 38.04 52.4 36.52C52.88 35 53.12 33.6 53.12 32.32C53.12 28.96 51.96 26.4 49.64 24.64C47.4 22.8 44.08 21.88 39.68 21.88C36.16 21.88 32.88 22.56 29.84 23.92C26.88 25.28 24.36 27.4 22.28 30.28L8.12 21.16C11.32 16.36 15.8 12.56 21.56 9.75999C27.32 6.96 33.96 5.56 41.48 5.56C47.72 5.56 53.16 6.6 57.8 8.67999C62.52 10.68 66.16 13.52 68.72 17.2C71.36 20.88 72.68 25.28 72.68 30.4C72.68 33.12 72.32 35.84 71.6 38.56C70.96 41.2 69.6 44 67.52 46.96C65.52 49.92 62.56 53.24 58.64 56.92L31.76 82.24L28.04 75.16H75.44V91H11.96Z"/>
</mask>
<path d="M11.96 91V78.4L44.36 47.8C46.92 45.48 48.8 43.4 50 41.56C51.2 39.72 52 38.04 52.4 36.52C52.88 35 53.12 33.6 53.12 32.32C53.12 28.96 51.96 26.4 49.64 24.64C47.4 22.8 44.08 21.88 39.68 21.88C36.16 21.88 32.88 22.56 29.84 23.92C26.88 25.28 24.36 27.4 22.28 30.28L8.12 21.16C11.32 16.36 15.8 12.56 21.56 9.75999C27.32 6.96 33.96 5.56 41.48 5.56C47.72 5.56 53.16 6.6 57.8 8.67999C62.52 10.68 66.16 13.52 68.72 17.2C71.36 20.88 72.68 25.28 72.68 30.4C72.68 33.12 72.32 35.84 71.6 38.56C70.96 41.2 69.6 44 67.52 46.96C65.52 49.92 62.56 53.24 58.64 56.92L31.76 82.24L28.04 75.16H75.44V91H11.96Z" fill="#00093C"/>
<path d="M11.96 91H9.96V93H11.96V91ZM11.96 78.4L10.5868 76.946L9.96 77.5379V78.4H11.96ZM44.36 47.8L43.017 46.318L43.0017 46.3318L42.9868 46.346L44.36 47.8ZM50 41.56L51.6752 42.6525L51.6752 42.6525L50 41.56ZM52.4 36.52L50.4928 35.9177L50.4782 35.964L50.4659 36.011L52.4 36.52ZM49.64 24.64L48.3705 26.1854L48.4004 26.21L48.4312 26.2334L49.64 24.64ZM29.84 23.92L29.0233 22.0944L29.0141 22.0985L29.005 22.1026L29.84 23.92ZM22.28 30.28L21.197 31.9614L22.7912 32.9882L23.9014 31.451L22.28 30.28ZM8.12 21.16L6.4559 20.0506L5.32882 21.7412L7.03705 22.8414L8.12 21.16ZM21.56 9.75999L20.6856 7.96126L20.6856 7.96126L21.56 9.75999ZM57.8 8.67999L56.9819 10.505L57.0007 10.5135L57.0197 10.5215L57.8 8.67999ZM68.72 17.2L67.0782 18.3421L67.0865 18.354L67.0949 18.3658L68.72 17.2ZM71.6 38.56L69.6666 38.0482L69.6612 38.0685L69.6563 38.0888L71.6 38.56ZM67.52 46.96L65.8836 45.8101L65.8731 45.8251L65.8628 45.8403L67.52 46.96ZM58.64 56.92L57.2711 55.4619L57.2687 55.4642L58.64 56.92ZM31.76 82.24L29.9895 83.1703L31.2144 85.5015L33.1313 83.6958L31.76 82.24ZM28.04 75.16V73.16H24.7299L26.2695 76.0903L28.04 75.16ZM75.44 75.16H77.44V73.16H75.44V75.16ZM75.44 91V93H77.44V91H75.44ZM13.96 91V78.4H9.96V91H13.96ZM13.3332 79.854L45.7332 49.254L42.9868 46.346L10.5868 76.946L13.3332 79.854ZM45.703 49.282C48.3264 46.9045 50.3442 44.6935 51.6752 42.6525L48.3248 40.4675C47.2558 42.1065 45.5136 44.0555 43.017 46.318L45.703 49.282ZM51.6752 42.6525C52.9494 40.6988 53.8627 38.8203 54.3341 37.029L50.4659 36.011C50.1373 37.2597 49.4506 38.7412 48.3248 40.4675L51.6752 42.6525ZM54.3072 37.1223C54.8343 35.4531 55.12 33.8473 55.12 32.32H51.12C51.12 33.3527 50.9257 34.5469 50.4928 35.9177L54.3072 37.1223ZM55.12 32.32C55.12 28.4436 53.7483 25.2463 50.8488 23.0466L48.4312 26.2334C50.1717 27.5537 51.12 29.4764 51.12 32.32H55.12ZM50.9095 23.0945C48.1675 20.8422 44.3136 19.88 39.68 19.88V23.88C43.8464 23.88 46.6325 24.7578 48.3705 26.1854L50.9095 23.0945ZM39.68 19.88C35.8949 19.88 32.3347 20.6129 29.0233 22.0944L30.6567 25.7456C33.4253 24.5071 36.4251 23.88 39.68 23.88V19.88ZM29.005 22.1026C25.7036 23.6195 22.9218 25.9754 20.6586 29.109L23.9014 31.451C25.7982 28.8246 28.0564 26.9405 30.675 25.7374L29.005 22.1026ZM23.363 28.5986L9.20295 19.4786L7.03705 22.8414L21.197 31.9614L23.363 28.5986ZM9.7841 22.2694C12.7657 17.797 16.9581 14.2208 22.4344 11.5587L20.6856 7.96126C14.6419 10.8992 9.87433 14.9229 6.4559 20.0506L9.7841 22.2694ZM22.4344 11.5587C27.8784 8.91235 34.2105 7.56 41.48 7.56V3.56C33.7095 3.56 26.7616 5.00764 20.6856 7.96126L22.4344 11.5587ZM41.48 7.56C47.5005 7.56 52.6507 8.56345 56.9819 10.505L58.6181 6.85498C53.6693 4.63654 47.9395 3.56 41.48 3.56V7.56ZM57.0197 10.5215C61.4434 12.3959 64.7633 15.0144 67.0782 18.3421L70.3618 16.0579C67.5567 12.0256 63.5966 8.96406 58.5803 6.83849L57.0197 10.5215ZM67.0949 18.3658C69.46 21.6625 70.68 25.6414 70.68 30.4H74.68C74.68 24.9186 73.2601 20.0975 70.3451 16.0342L67.0949 18.3658ZM70.68 30.4C70.68 32.9414 70.3439 35.4894 69.6666 38.0482L73.5334 39.0718C74.2961 36.1906 74.68 33.2986 74.68 30.4H70.68ZM69.6563 38.0888C69.0913 40.4193 67.8646 42.991 65.8836 45.8101L69.1564 48.1099C71.3354 45.009 72.8287 41.9807 73.5437 39.0312L69.6563 38.0888ZM65.8628 45.8403C63.9765 48.632 61.1313 51.838 57.2711 55.4619L60.0089 58.3781C63.9887 54.642 67.0635 51.208 69.1772 48.0797L65.8628 45.8403ZM57.2687 55.4642L30.3887 80.7842L33.1313 83.6958L60.0113 58.3758L57.2687 55.4642ZM33.5305 81.3097L29.8105 74.2297L26.2695 76.0903L29.9895 83.1703L33.5305 81.3097ZM28.04 77.16H75.44V73.16H28.04V77.16ZM73.44 75.16V91H77.44V75.16H73.44ZM75.44 89H11.96V93H75.44V89Z" fill="#27AAE1" fill-opacity="0.2" mask="url(#path-1-outside-1_24879_8)"/>
</svg>
