<svg width="84" height="98" viewBox="0 0 84 98" fill="none" xmlns="http://www.w3.org/2000/svg">
<mask id="path-1-outside-1_24879_7" maskUnits="userSpaceOnUse" x="5" y="5" width="72" height="90" fill="black">
<rect fill="white" x="5" y="5" width="72" height="90"/>
<path d="M39.92 92.44C34.08 92.44 28.28 91.68 22.52 90.16C16.76 88.56 11.88 86.32 7.88 83.44L15.44 68.56C18.64 70.88 22.36 72.72 26.6 74.08C30.84 75.44 35.12 76.12 39.44 76.12C44.32 76.12 48.16 75.16 50.96 73.24C53.76 71.32 55.16 68.68 55.16 65.32C55.16 62.12 53.92 59.6 51.44 57.76C48.96 55.92 44.96 55 39.44 55H30.56V42.16L53.96 15.64L56.12 22.6H12.08V6.99999H70.88V19.6L47.6 46.12L37.76 40.48H43.4C53.72 40.48 61.52 42.8 66.8 47.44C72.08 52.08 74.72 58.04 74.72 65.32C74.72 70.04 73.48 74.48 71 78.64C68.52 82.72 64.72 86.04 59.6 88.6C54.48 91.16 47.92 92.44 39.92 92.44Z"/>
</mask>
<path d="M39.92 92.44C34.08 92.44 28.28 91.68 22.52 90.16C16.76 88.56 11.88 86.32 7.88 83.44L15.44 68.56C18.64 70.88 22.36 72.72 26.6 74.08C30.84 75.44 35.12 76.12 39.44 76.12C44.32 76.12 48.16 75.16 50.96 73.24C53.76 71.32 55.16 68.68 55.16 65.32C55.16 62.12 53.92 59.6 51.44 57.76C48.96 55.92 44.96 55 39.44 55H30.56V42.16L53.96 15.64L56.12 22.6H12.08V6.99999H70.88V19.6L47.6 46.12L37.76 40.48H43.4C53.72 40.48 61.52 42.8 66.8 47.44C72.08 52.08 74.72 58.04 74.72 65.32C74.72 70.04 73.48 74.48 71 78.64C68.52 82.72 64.72 86.04 59.6 88.6C54.48 91.16 47.92 92.44 39.92 92.44Z" fill="#00093C"/>
<path d="M22.52 90.16L21.9847 92.087L21.9972 92.0905L22.0097 92.0938L22.52 90.16ZM7.88 83.44L6.09693 82.5341L5.32075 84.0618L6.71139 85.0631L7.88 83.44ZM15.44 68.56L16.6139 66.9408L14.7178 65.5661L13.6569 67.6541L15.44 68.56ZM26.6 74.08L25.9891 75.9844L25.9891 75.9844L26.6 74.08ZM50.96 73.24L52.0911 74.8895L52.0911 74.8895L50.96 73.24ZM51.44 57.76L52.6317 56.1538L51.44 57.76ZM30.56 55H28.56V57H30.56V55ZM30.56 42.16L29.0603 40.8368L28.56 41.4038V42.16H30.56ZM53.96 15.64L55.8701 15.0472L54.8152 11.6479L52.4603 14.3168L53.96 15.64ZM56.12 22.6V24.6H58.8348L58.0301 22.0072L56.12 22.6ZM12.08 22.6H10.08V24.6H12.08V22.6ZM12.08 6.99999V4.99999H10.08V6.99999H12.08ZM70.88 6.99999H72.88V4.99999H70.88V6.99999ZM70.88 19.6L72.3831 20.9194L72.88 20.3533V19.6H70.88ZM47.6 46.12L46.6054 47.8552L48.0242 48.6684L49.103 47.4394L47.6 46.12ZM37.76 40.48V38.48H30.2487L36.7654 42.2152L37.76 40.48ZM66.8 47.44L65.4798 48.9423L65.4798 48.9423L66.8 47.44ZM71 78.64L72.709 79.6788L72.7135 79.6715L72.7179 79.6641L71 78.64ZM59.6 88.6L58.7056 86.8111L58.7056 86.8111L59.6 88.6ZM39.92 90.44C34.2557 90.44 28.6271 89.7031 23.0303 88.2262L22.0097 92.0938C27.9329 93.6569 33.9043 94.44 39.92 94.44V90.44ZM23.0553 88.233C17.4757 86.6831 12.8212 84.5332 9.04861 81.8169L6.71139 85.0631C10.9388 88.1068 16.0443 90.4369 21.9847 92.087L23.0553 88.233ZM9.66307 84.3459L17.2231 69.4659L13.6569 67.6541L6.09693 82.5341L9.66307 84.3459ZM14.2661 70.1792C17.6577 72.6381 21.5727 74.5678 25.9891 75.9844L27.2109 72.1756C23.1473 70.8722 19.6223 69.1219 16.6139 66.9408L14.2661 70.1792ZM25.9891 75.9844C30.4204 77.4058 34.9063 78.12 39.44 78.12V74.12C35.3337 74.12 31.2596 73.4742 27.2109 72.1756L25.9891 75.9844ZM39.44 78.12C44.5548 78.12 48.8417 77.1176 52.0911 74.8895L49.8289 71.5905C47.4783 73.2024 44.0852 74.12 39.44 74.12V78.12ZM52.0911 74.8895C55.4281 72.6012 57.16 69.3477 57.16 65.32H53.16C53.16 68.0123 52.0919 70.0388 49.8289 71.5905L52.0911 74.8895ZM57.16 65.32C57.16 61.5138 55.6415 58.3869 52.6317 56.1538L50.2483 59.3662C52.1985 60.8131 53.16 62.7262 53.16 65.32H57.16ZM52.6317 56.1538C49.6269 53.9244 45.0913 53 39.44 53V57C44.8287 57 48.2931 57.9156 50.2483 59.3662L52.6317 56.1538ZM39.44 53H30.56V57H39.44V53ZM32.56 55V42.16H28.56V55H32.56ZM32.0597 43.4832L55.4597 16.9632L52.4603 14.3168L29.0603 40.8368L32.0597 43.4832ZM52.0499 16.2328L54.2099 23.1928L58.0301 22.0072L55.8701 15.0472L52.0499 16.2328ZM56.12 20.6H12.08V24.6H56.12V20.6ZM14.08 22.6V6.99999H10.08V22.6H14.08ZM12.08 8.99999H70.88V4.99999H12.08V8.99999ZM68.88 6.99999V19.6H72.88V6.99999H68.88ZM69.377 18.2806L46.097 44.8006L49.103 47.4394L72.3831 20.9194L69.377 18.2806ZM48.5946 44.3848L38.7546 38.7448L36.7654 42.2152L46.6054 47.8552L48.5946 44.3848ZM37.76 42.48H43.4V38.48H37.76V42.48ZM43.4 42.48C53.4566 42.48 60.703 44.7446 65.4798 48.9423L68.1202 45.9377C62.337 40.8554 53.9834 38.48 43.4 38.48V42.48ZM65.4798 48.9423C70.3104 53.1874 72.72 58.5918 72.72 65.32H76.72C76.72 57.4882 73.8496 50.9726 68.1202 45.9377L65.4798 48.9423ZM72.72 65.32C72.72 69.6697 71.5825 73.7571 69.2821 77.6159L72.7179 79.6641C75.3775 75.2029 76.72 70.4103 76.72 65.32H72.72ZM69.291 77.6012C67.0424 81.3005 63.5564 84.3857 58.7056 86.8111L60.4944 90.3889C65.8836 87.6943 69.9977 84.1395 72.709 79.6788L69.291 77.6012ZM58.7056 86.8111C53.9512 89.1883 47.7256 90.44 39.92 90.44V94.44C48.1144 94.44 55.0088 93.1317 60.4944 90.3889L58.7056 86.8111Z" fill="#27AAE1" fill-opacity="0.2" mask="url(#path-1-outside-1_24879_7)"/>
</svg>
