<svg width="180" height="186" viewBox="0 0 180 186" fill="none" xmlns="http://www.w3.org/2000/svg">
<path d="M177.27 48.001L177.25 48.0189L177.232 48.0378L138.402 88.0002C135.563 90.9211 135.563 96.0415 138.402 98.9624L177.232 138.925C179.316 141.07 179.316 144.955 177.232 147.1L141.957 183.403C139.888 185.532 136.162 185.532 134.094 183.403L95.2633 143.441C92.4095 140.504 87.3854 140.504 84.5316 143.441L45.7013 183.403C43.633 185.532 39.9067 185.532 37.8383 183.403L2.563 147.1C0.479 144.955 0.479003 141.07 2.563 138.925L41.3932 98.9624C44.2313 96.0415 44.2313 90.9211 41.3932 88.0002L2.563 48.0378C0.479001 45.893 0.479001 42.0078 2.563 39.863L37.8383 3.55914C39.9067 1.43048 43.633 1.43048 45.7013 3.55914L84.5316 43.5216C87.3854 46.4586 92.4095 46.4586 95.2633 43.5216L134.094 3.55914C136.162 1.43048 139.888 1.43048 141.957 3.55914L177.232 39.863C179.611 42.311 179.556 45.8835 177.27 48.001Z" stroke="url(#paint0_linear_163_6906)" stroke-width="2"/>
<defs>
<linearGradient id="paint0_linear_163_6906" x1="0" y1="93.4813" x2="180" y2="93.4813" gradientUnits="userSpaceOnUse">
<stop stop-color="#F7941D"/>
<stop offset="1" stop-color="#27AAE1"/>
</linearGradient>
</defs>
</svg>
